<?xml version="1.0" encoding="iso-8859-1"?>
<!-- Generator: Adobe Illustrator 19.0.0, SVG Export Plug-In . SVG Version: 6.00 Build 0)  -->
<svg version="1.1" id="Capa_1" xmlns="http://www.w3.org/2000/svg" xmlns:xlink="http://www.w3.org/1999/xlink" x="0px" y="0px"
	 viewBox="0 0 358.9 358.9" style="enable-background:new 0 0 358.9 358.9;" xml:space="preserve">
<g>
	<path style="fill:#ED664C;" d="M238.25,10.4c43.2,0,77.8,75.4,77.8,169s-35.4,169-78.6,169l-29.7,0.1c3.5-3.2,6.9-10.8,10.7-13.1
		c5.8-3.6,15.8-3.5,21-9.7c4.4-5.3,3-15.3,6.9-22.3c3.4-6.2,12.7-10.1,15.5-17.4c2.6-6.6-1.5-15.9,0.7-23.4
		c2-6.9,10.3-12.6,11.8-20.2c1.4-7.1-4.1-15.6-3.1-23.2c0.9-7.2,8.4-14,8.8-21.6c0.4-7.3-6.1-15-6.1-22.6s6.5-15.2,6.1-22.6
		c-0.5-7.6-7.9-14.4-8.8-21.7c-1-7.6,4.5-16,3.1-23.1c-1.5-7.5-9.8-13.2-11.8-20.2c-2.1-7.5,1.9-16.7-0.7-23.4
		c-2.9-7.3-12.1-11.2-15.5-17.4c-3.9-7-2.4-17-6.9-22.3c-5.2-6.2-15.1-10.5-21-14.1v-0.1L238.25,10.4z"/>
	<path style="fill:#ED664C;" d="M280.05,152.5c0.4,7.3-6.1,15-6.1,22.6s6.5,15.2,6.1,22.6c-0.5,7.6-7.9,14.4-8.8,21.6
		c-1,7.6,4.5,16,3.1,23.2c-1.5,7.5-9.8,13.2-11.8,20.2c-2.1,7.5,1.9,16.7-0.7,23.4c-2.9,7.3-12.1,11.2-15.5,17.4
		c-3.9,7-2.4,17-6.9,22.3c-5.2,6.2-15.1,6.2-21,9.7c-3.8,2.3-7.2,9.9-10.7,13.1l-35,0.1l0,0c3.6-3.5,7-10.9,10.9-13.2
		c5.9-3.6,15.8-3.5,21-9.7c4.4-5.3,3-15.3,6.9-22.3c3.4-6.2,12.7-10.1,15.5-17.4c2.6-6.6-1.4-15.9,0.7-23.4
		c2-6.9,10.3-12.6,11.8-20.2c1.4-7.1-4.1-15.6-3.1-23.2c0.9-7.2,8.4-14,8.8-21.6c0.5-7.3-6.1-15-6.1-22.6s6.6-15.2,6.1-22.6
		c-0.5-7.6-7.9-14.4-8.8-21.7c-1-7.6,4.5-16,3.1-23.1c-1.5-7.5-9.8-13.2-11.8-20.2c-2.1-7.5,1.9-16.7-0.7-23.4
		c-2.9-7.3-12.1-11.2-15.5-17.4c-3.9-7-2.4-17-6.9-22.3c-5.2-6.2-15.1-10.5-21-14.1v-0.2l34.8,0.2v0.1c5.8,3.6,15.8,7.8,21,14.1
		c4.4,5.3,3,15.3,6.9,22.3c3.4,6.2,12.7,10.1,15.5,17.4c2.6,6.6-1.5,15.9,0.7,23.4c2,6.9,10.3,12.6,11.8,20.2
		c1.4,7.1-4.1,15.6-3.1,23.1C272.15,138.1,279.65,144.9,280.05,152.5z"/>
	<path style="fill:#ED664C;" d="M245.35,152.5c0.5,7.3-6.1,15-6.1,22.6s6.6,15.2,6.1,22.6c-0.5,7.6-7.9,14.4-8.8,21.6
		c-1,7.6,4.5,16,3.1,23.2c-1.5,7.5-9.8,13.2-11.8,20.2c-2.1,7.5,1.9,16.7-0.7,23.4c-2.9,7.3-12.1,11.2-15.5,17.4
		c-3.9,7-2.4,17-6.9,22.3c-5.2,6.2-15.1,6.2-21,9.7c-3.9,2.4-7.3,9.7-10.9,13.2l0,0l-49.2,0.2l0,0c41.9-3,75.5-77.7,75.5-169.4
		c0-91.8-33.7-166.6-75.7-169.4V10l60.4,0.3v0.1c5.8,3.6,15.8,7.8,21,14.1c4.4,5.3,3,15.3,6.9,22.3c3.4,6.2,12.7,10.1,15.5,17.4
		c2.6,6.6-1.5,15.9,0.7,23.4c2,6.9,10.3,12.6,11.8,20.2c1.4,7.1-4.1,15.6-3.1,23.1C237.45,138.1,244.85,144.9,245.35,152.5z"/>
	<path style="fill:#ED664C;" d="M123.45,10c42,2.8,75.7,77.6,75.7,169.4c0,91.7-33.6,166.4-75.5,169.4c-0.9,0.1-1.8,0.1-2.7,0.1
		c-43.2,0-78.2-75.9-78.2-169.5s35-169.5,78.2-169.5C121.85,9.9,122.65,10,123.45,10z M153.85,179.4c0-44.5-12.3-80.7-32.9-80.7
		c-20.5,0-32.9,36.1-32.9,80.7s12.3,80.7,32.9,80.7S153.85,224,153.85,179.4z"/>
</g>
<ellipse style="fill:#FDC75B;" cx="120.95" cy="179.4" rx="32.9" ry="80.7"/>
<path d="M120.95,358.9c1,0,1.9,0,2.8-0.1l113.8-0.4c25,0,47.9-19.6,64.5-55.2c15.5-33.2,24-77.2,24-123.8
	c0-46.7-8.4-90.7-23.6-123.8c-16.4-35.6-39.2-55-64.1-55l-114.9-0.2l0,0c-0.3,0-0.6-0.2-0.9-0.2c-0.5,0-1-0.2-1.5-0.2
	c-25,0-47.9,19.6-64.4,55.4c-15.4,33.3-23.8,77.3-23.8,124s8.5,90.7,23.8,124C73.15,339.2,95.95,358.9,120.95,358.9z M218.75,22
	c4.6,2.5,10.4,5.7,13.1,8.9c0.7,0.9,1.2,4.3,1.6,6.6c0.7,4.4,1.6,9.4,4.2,14.1c2.4,4.4,6.1,7.5,9.3,10.3c2.3,2,5,4.3,5.7,5.9
	c0.5,1.2,0.1,4.6-0.2,7.1c-0.5,4.6-1,9.9,0.5,15.3c1.5,5.1,4.6,9.2,7.3,12.7c1.8,2.4,3.9,5,4.2,6.7c0.3,1.3-0.6,4.5-1.3,7.1
	c-1.2,4.5-2.7,9.7-1.9,15.3c0.7,5.4,3.3,10,5.5,13.9c1.5,2.6,3.1,5.4,3.2,7.1c0.1,1.4-1.2,4.5-2.2,7c-1.8,4.3-3.9,9.3-3.9,15
	c0,5.7,2.1,10.6,3.9,15c1,2.5,2.3,5.6,2.2,7c-0.1,1.6-1.8,4.5-3.2,7.1c-2.3,4-4.9,8.5-5.5,13.9c-0.7,5.7,0.7,10.8,1.9,15.3
	c0.7,2.6,1.6,5.8,1.3,7.1c-0.3,1.7-2.4,4.3-4.2,6.7c-2.8,3.5-5.9,7.6-7.3,12.7c-1.5,5.5-1,10.7-0.5,15.3c0.3,2.5,0.6,5.9,0.2,7.1
	c-0.7,1.7-3.2,3.9-5.7,6c-3.2,2.8-6.9,5.9-9.3,10.3c-2.6,4.7-3.4,9.7-4.2,14.1c-0.4,2.3-1,5.8-1.6,6.6c-1.2,1.5-4.7,2.5-8,3.5
	c-2.4,0.7-5,1.5-7.6,2.6c1.1-3.1,1.7-6.4,2.2-9.4s1-6,2-7.8c0.6-1.2,2.8-3,4.8-4.7c3.9-3.4,8.8-7.5,11.3-13.9
	c2.2-5.7,1.6-11.4,1.1-16.4c-0.3-3-0.6-6.1-0.1-7.8c0.4-1.4,2.2-3.7,3.9-5.8c3-3.9,6.8-8.8,8.1-15.1c1.2-6-0.3-11.5-1.6-16.3
	c-0.8-2.9-1.6-5.8-1.4-7.6c0.2-1.5,1.7-4.1,3.1-6.5c2.4-4.2,5.4-9.5,5.8-15.8c0.4-6.1-1.8-11.3-3.8-15.9c-1.1-2.7-2.3-5.5-2.3-7.2
	s1.2-4.5,2.3-7.2c1.9-4.6,4.1-9.9,3.8-15.9c-0.4-6.3-3.4-11.6-5.8-15.8c-1.3-2.3-2.9-5-3.1-6.5c-0.2-1.7,0.6-4.7,1.4-7.6
	c1.3-4.8,2.8-10.3,1.6-16.3c-1.3-6.3-5-11.2-8.1-15.1c-1.6-2.1-3.5-4.5-3.9-5.8c-0.5-1.8-0.2-4.8,0.1-7.8c0.5-5,1.1-10.8-1.1-16.4
	c-2.5-6.4-7.4-10.5-11.3-13.9c-1.9-1.6-4.1-3.5-4.8-4.7c-1-1.8-1.5-4.8-2-7.8c-0.7-4.5-1.6-9.5-4.4-13.9h1.6
	C216.65,20.9,217.75,21.4,218.75,22z M184.05,22c4.6,2.5,10.4,5.7,13.1,8.9c0.7,0.9,1.2,4.3,1.6,6.6c0.7,4.4,1.6,9.4,4.2,14.1
	c2.4,4.4,6.1,7.5,9.3,10.3c2.3,2,5,4.3,5.7,5.9c0.5,1.2,0.1,4.6-0.2,7.1c-0.5,4.6-1,9.9,0.5,15.3c1.5,5.1,4.6,9.2,7.3,12.7
	c1.8,2.4,3.9,5,4.2,6.7c0.3,1.3-0.6,4.5-1.3,7.1c-1.2,4.5-2.6,9.7-1.9,15.3c0.7,5.4,3.3,10,5.5,13.9c1.5,2.6,3.1,5.4,3.2,7.1
	c0.1,1.4-1.2,4.5-2.2,7c-1.8,4.3-3.9,9.3-3.9,15c0,5.7,2.1,10.6,3.9,15c1,2.5,2.3,5.6,2.2,7c-0.1,1.6-1.8,4.5-3.2,7.1
	c-2.3,4-4.9,8.5-5.5,13.9c-0.7,5.7,0.7,10.8,1.9,15.3c0.7,2.6,1.6,5.8,1.3,7.1c-0.3,1.7-2.4,4.3-4.2,6.7c-2.8,3.5-5.9,7.6-7.3,12.7
	c-1.5,5.5-1,10.7-0.5,15.3c0.3,2.5,0.6,5.9,0.2,7.1c-0.7,1.7-3.3,3.9-5.7,5.9c-3.2,2.8-6.9,5.9-9.3,10.3c-2.6,4.7-3.4,9.7-4.2,14.1
	c-0.4,2.3-1,5.8-1.6,6.6c-1.2,1.5-4.7,2.5-8,3.5s-7.1,2.1-10.5,4.1c-4.1,2.5-7,6.6-9.5,10.3c-0.3,0.5-0.7,1-1.1,1.5h-5.6
	c8.9-9.4,16.9-21.9,23.8-37.2c14.8-33,22.9-76.4,22.9-122c0-45.7-8.2-89.1-23-122.2c-6.9-15.3-14.9-27.8-23.8-37.2l18.3,0.1
	C181.75,20.8,182.85,21.4,184.05,22z M284.25,64c14.1,30.6,21.8,71.5,21.8,115.4c0,43.8-7.9,84.7-22.1,115.4
	c-12.5,26.8-28.7,42.6-44.8,43.6c2.9-1.5,5.7-3.4,8.1-6.3c4.1-4.9,5.1-10.9,6-16.1c0.5-3,1-6,2-7.8c0.6-1.2,2.8-3,4.8-4.7
	c3.9-3.4,8.8-7.5,11.3-13.9c2.2-5.7,1.6-11.4,1.1-16.5c-0.3-3-0.6-6.1-0.1-7.8c0.4-1.4,2.2-3.7,3.9-5.8c3-3.9,6.8-8.8,8.1-15.1
	c1.2-6-0.3-11.5-1.6-16.3c-0.8-2.9-1.6-5.8-1.4-7.6c0.2-1.5,1.7-4.1,3.1-6.5c2.4-4.2,5.4-9.5,5.8-15.8c0.4-6.1-1.8-11.3-3.8-15.9
	c-1.1-2.7-2.3-5.5-2.3-7.2s1.2-4.5,2.3-7.2c1.9-4.6,4.1-9.9,3.8-15.9c-0.4-6.3-3.4-11.6-5.8-15.8c-1.3-2.3-2.9-5-3.1-6.5
	c-0.2-1.7,0.6-4.7,1.4-7.6c1.3-4.8,2.8-10.3,1.7-16.3c-1.3-6.3-5-11.2-8.1-15.1c-1.6-2.1-3.5-4.5-3.9-5.8c-0.5-1.8-0.2-4.8,0.1-7.8
	c0.5-5,1.1-10.8-1.1-16.4c-2.5-6.4-7.4-10.5-11.3-13.9c-1.9-1.6-4.1-3.5-4.8-4.7c-1-1.8-1.5-4.8-2-7.8c-0.6-3.5-1.2-7.4-2.8-11
	C262.75,28.9,274.65,43.1,284.25,64z M74.75,63.7c12.8-27.9,29.7-43.8,46.2-43.8c0.6,0,1.1,0,1.7,0.1c0,0,0,0,0.1,0
	c16.3,1.1,32.7,17.6,45.2,45.4c13.7,30.5,21.2,71,21.2,114c0,42.9-7.5,83.3-21.2,113.9c-12.4,27.8-28.9,44.4-45.2,45.6
	c-0.6,0-1.2,0.1-1.9,0.1c-16.5,0-33.4-16-46.2-43.8c-14.2-30.7-22-71.8-22-115.7C52.85,135.5,60.65,94.5,74.75,63.7z"/>
<path d="M120.95,270.1c26,0,42.9-35.6,42.9-90.7s-16.8-90.7-42.9-90.7s-42.9,35.6-42.9,90.7S94.95,270.1,120.95,270.1z M106.15,126
	c2-5.2,7.5-17.2,14.8-17.2c7.4,0,12.8,12.1,14.8,17.2c5.2,13.4,8.1,32.4,8.1,53.4s-2.9,40-8.1,53.4c-2,5.2-7.5,17.2-14.8,17.2
	c-7.4,0-12.8-12.1-14.8-17.2c-5.2-13.4-8.1-32.4-8.1-53.4S100.95,139.4,106.15,126z"/>
<g>
</g>
<g>
</g>
<g>
</g>
<g>
</g>
<g>
</g>
<g>
</g>
<g>
</g>
<g>
</g>
<g>
</g>
<g>
</g>
<g>
</g>
<g>
</g>
<g>
</g>
<g>
</g>
<g>
</g>
</svg>
